Screenshots: Opens the link, wait 5 seconds and top right press "Skip ad"







General
Full name: H: \ schatz.es.tut.gar.nicht.weh.103.avi
Format: AVI
Format / Info: Audio Video Interleave
File size: 701 MiB
Duration: 1h 32mn
Total BitRate: 1 062 Kbps
Recorder application: VirtualDubMod 1.5.10.2 (build 2540/release)
Writing library: VirtualDubMod build 2540/release

Video
Format: MPEG-4 Visual
Format profile: Streaming Video @ L1
Format settings, BVOP: Yes
Format settings, QPel: No
Format settings, GMC: No warppoints
Format settings, Matrix: Default
Codec ID: XVID
Codec ID / Hint: XviD
Duration: 1h 32mn
Data transfer rate: 925 Kbps
Width: 576 pixels
Height: 320 pixels
Ratio: 16 / 9
Frame rate: 25,000 fps
Resolution: 24 bits
Colorimetry: 4:2:0
Scan type: Continuous scanning
Bits / (Pixel * Frame): 0.201
Stream size: 611 MiB (87%)
Writing library: XviD 50

Audio
Format: MPEG Audio
Format version: Version 1
Format profile: Layer 3
Codec ID: 55
Codec ID / Hint: MP3
Duration: 1h 32mn
Bit rate mode: Constant
Data transfer rate: 32,0 Kbps
Channel (s): 2 channels
Sampling rate: 48,0 KHz
Resolution: 16 bits
Stream size: 81,6 MiB (12%)
Alignment: Aligned on interleaves
Interleave, duration: 24 ms (0,60 video frame)
Interleave, preload duration: 504 ms